<svg version="1.2" xmlns="http://www.w3.org/2000/svg" xmlns:xlink="http://www.w3.org/1999/xlink" overflow="visible" preserveAspectRatio="none" viewBox="0 0 482 482" xml:space="preserve" y="0px" x="0px" id="Capa_1_1579765902578" width="80" height="80"><g transform="translate(1, 1)"><path d="M440,124h-88l-22.784-39.88c-5.698-9.969-16.301-16.121-27.784-16.12H178.568  c-11.483-0.001-22.086,6.151-27.784,16.12L128,124H40c-17.673,0-32,14.327-32,32v224c0,17.673,14.327,32,32,32h400  c17.673,0,32-14.327,32-32V156C472,138.327,457.673,124,440,124z M240,364c-61.856,0-112-50.144-112-112s50.144-112,112-112  s112,50.144,112,112S301.856,364,240,364z M400,188c-8.837,0-16-7.163-16-16s7.163-16,16-16s16,7.163,16,16S408.837,188,400,188z" style="fill:#FFF0DD;" vector-effect="non-scaling-stroke"/><path d="M240,140c-61.856,0-112,50.144-112,112s50.144,112,112,112s112-50.144,112-112S301.856,140,240,140z   M240,332c-44.183,0-80-35.817-80-80s35.817-80,80-80s80,35.817,80,80C319.952,296.163,284.163,331.952,240,332z" style="fill:#F3F4FD;" vector-effect="non-scaling-stroke"/><g>
	<circle r="80" cy="252" cx="240" style="fill:#DCDEF9;" vector-effect="non-scaling-stroke"/>
	<path d="M48,92h64v32H48V92z" style="fill:#DCDEF9;" vector-effect="non-scaling-stroke"/>
	<path d="M384,100h48v24h-48V100z" style="fill:#DCDEF9;" vector-effect="non-scaling-stroke"/>
</g><circle r="16" cy="172" cx="400" style="fill:#F3F4FD;" vector-effect="non-scaling-stroke"/><g>
	<path d="M240,340c-48.601,0-88-39.399-88-88s39.399-88,88-88s88,39.399,88,88   C327.943,300.577,288.577,339.943,240,340z M240,180c-39.764,0-72,32.236-72,72s32.236,72,72,72s72-32.236,72-72   C311.952,212.256,279.744,180.048,240,180z" style="fill:#231F20;" vector-effect="non-scaling-stroke"/>
	<path d="M440,116v-16c0-4.418-3.582-8-8-8h-48c-4.418,0-8,3.582-8,8v16h-19.352L336.16,80.16   c-7.132-12.452-20.378-20.142-34.728-20.16H178.568c-14.35,0.018-27.596,7.708-34.728,20.16L123.352,116H120V92   c0-4.418-3.582-8-8-8H48c-4.418,0-8,3.582-8,8v24c-22.08,0.026-39.974,17.92-40,40v224c0.026,22.08,17.92,39.974,40,40h400   c22.08-0.026,39.974-17.92,40-40V156C479.974,133.92,462.08,116.026,440,116z M392,108h32v8h-32V108z M56,100h48v16H56V100z    M464,380c0,13.255-10.745,24-24,24H40c-13.255,0-24-10.745-24-24V156c0-13.255,10.745-24,24-24h88c2.864,0.006,5.512-1.52,6.944-4   l22.784-39.872c4.275-7.481,12.223-12.107,20.84-12.128h122.864c8.596,0.029,16.524,4.64,20.8,12.096L345.056,128   c1.432,2.48,4.08,4.006,6.944,4h88c13.255,0,24,10.745,24,24V380z" style="fill:#231F20;" vector-effect="non-scaling-stroke"/>
	<path d="M240,132c-66.274,0-120,53.726-120,120s53.726,120,120,120s120-53.726,120-120   C359.925,185.757,306.243,132.075,240,132z M240,356c-57.438,0-104-46.562-104-104s46.562-104,104-104s104,46.562,104,104   C343.934,309.41,297.41,355.934,240,356z" style="fill:#231F20;" vector-effect="non-scaling-stroke"/>
	<path d="M80,364c-4.418,0-8-3.582-8-8V164c0-4.418,3.582-8,8-8s8,3.582,8,8v192   C88,360.418,84.418,364,80,364z" style="fill:#231F20;" vector-effect="non-scaling-stroke"/>
	<path d="M400,196c-13.255,0-24-10.745-24-24s10.745-24,24-24s24,10.745,24,24S413.255,196,400,196z M400,164   c-4.418,0-8,3.582-8,8s3.582,8,8,8s8-3.582,8-8S404.418,164,400,164z" style="fill:#231F20;" vector-effect="non-scaling-stroke"/>
</g><g>
</g><g>
</g><g>
</g><g>
</g><g>
</g><g>
</g><g>
</g><g>
</g><g>
</g><g>
</g><g>
</g><g>
</g><g>
</g><g>
</g><g>
</g></g></svg>